<svg xmlns="http://www.w3.org/2000/svg" xmlns:xlink="http://www.w3.org/1999/xlink" width="500" zoomAndPan="magnify" viewBox="0 0 375 374.999991" height="500" preserveAspectRatio="xMidYMid meet" version="1.0"><defs><g/></defs><g fill="#f1a77a" fill-opacity="0.4"><g transform="translate(16.048927, 214.320183)"><g><path d="M 36.015625 -41.894531 C 24.988281 -44.414062 14.804688 -47.984375 14.804688 -59.953125 C 14.804688 -67.09375 18.375 -73.183594 28.351562 -73.183594 C 40.109375 -73.183594 50.925781 -64.785156 49.246094 -50.609375 L 58.589844 -65.414062 C 53.023438 -70.769531 45.046875 -74.96875 33.074219 -74.96875 C 16.589844 -74.96875 6.300781 -66.988281 6.300781 -54.808594 C 6.300781 -46.304688 11.234375 -36.433594 31.078125 -31.710938 C 43.574219 -28.769531 51.554688 -25.933594 51.554688 -15.328125 C 51.554688 -8.503906 48.300781 -0.421875 36.226562 -0.421875 C 23.730469 -0.421875 11.761719 -8.820312 13.335938 -22.996094 L 4.199219 -8.398438 C 9.871094 -2.941406 19.320312 1.46875 31.605469 1.46875 C 50.085938 1.46875 59.851562 -8.609375 59.851562 -20.476562 C 59.851562 -27.824219 56.175781 -37.273438 36.015625 -41.894531 Z M 36.015625 -41.894531 "/></g></g></g><g fill="#f1a77a" fill-opacity="0.4"><g transform="translate(80.098975, 214.320183)"><g><path d="M 11.65625 -62.371094 C 15.015625 -62.371094 17.640625 -64.996094 17.640625 -68.460938 C 17.640625 -71.820312 15.015625 -74.445312 11.65625 -74.445312 C 8.191406 -74.445312 5.566406 -71.820312 5.566406 -68.460938 C 5.566406 -64.996094 8.191406 -62.371094 11.65625 -62.371094 Z M 6.824219 0 L 21.210938 0 C 18.058594 -2.101562 17.113281 -4.09375 17.113281 -9.765625 L 17.113281 -43.679688 L 17.640625 -51.449219 L 1.050781 -49.875 L 1.050781 -49.453125 C 3.253906 -49.246094 5.984375 -48.511719 7.453125 -47.566406 L 7.453125 -7.246094 Z M 6.824219 0 "/></g></g></g><g fill="#f1a77a" fill-opacity="0.4"><g transform="translate(104.458993, 214.320183)"><g><path d="M 76.753906 0 L 91.140625 0 C 87.988281 -2.101562 87.046875 -4.09375 87.046875 -9.765625 L 87.046875 -32.445312 C 87.046875 -48.300781 79.378906 -51.554688 73.078125 -51.554688 C 64.261719 -51.554688 56.804688 -45.253906 51.136719 -41.054688 L 51.136719 -40.949219 C 48.929688 -49.558594 43.050781 -51.554688 38.113281 -51.554688 C 29.820312 -51.554688 22.679688 -45.886719 17.113281 -41.789062 L 17.113281 -43.679688 L 17.640625 -51.449219 L 1.050781 -49.875 L 1.050781 -49.453125 C 3.253906 -49.246094 5.984375 -48.511719 7.453125 -47.566406 L 7.453125 -7.246094 L 6.824219 0 L 21.210938 0 C 18.058594 -2.101562 17.113281 -4.09375 17.113281 -9.765625 L 17.113281 -39.480469 C 22.363281 -43.363281 26.773438 -47.039062 32.339844 -47.039062 C 37.171875 -47.039062 42.421875 -44.203125 42.421875 -32.234375 L 42.421875 -7.246094 L 41.789062 0 L 56.175781 0 C 53.023438 -2.101562 52.078125 -4.09375 52.078125 -9.765625 L 52.078125 -32.445312 C 52.078125 -34.964844 51.871094 -37.171875 51.554688 -39.058594 C 57.015625 -43.15625 61.53125 -47.039062 67.304688 -47.039062 C 72.136719 -47.039062 77.386719 -44.203125 77.386719 -32.234375 L 77.386719 -7.246094 Z M 76.753906 0 "/></g></g></g><g fill="#f1a77a" fill-opacity="0.4"><g transform="translate(198.749057, 214.320183)"><g><path d="M 30.03125 -51.554688 C 23.941406 -51.554688 12.179688 -50.503906 1.050781 -47.355469 L 1.050781 -46.933594 C 3.78125 -46.726562 6.511719 -45.988281 7.980469 -45.046875 L 7.980469 10.921875 C 7.980469 16.171875 6.929688 17.953125 3.253906 18.898438 L 3.253906 19.214844 L 23.308594 22.679688 L 23.308594 22.363281 C 18.585938 20.265625 17.640625 18.269531 17.640625 12.601562 L 17.640625 -1.050781 C 20.789062 -0.105469 24.464844 0.734375 29.085938 0.734375 C 47.144531 0.734375 58.171875 -10.710938 58.171875 -26.460938 C 58.171875 -40.84375 49.035156 -51.554688 30.03125 -51.554688 Z M 32.96875 -1.15625 C 27.300781 -1.15625 22.050781 -3.675781 17.640625 -6.824219 L 17.640625 -48.089844 C 19.949219 -49.140625 23.730469 -50.085938 27.195312 -50.085938 C 39.796875 -50.085938 47.878906 -37.695312 47.878906 -21.210938 C 47.878906 -6.40625 41.265625 -1.15625 32.96875 -1.15625 Z M 32.96875 -1.15625 "/></g></g></g><g fill="#f1a77a" fill-opacity="0.4"><g transform="translate(261.119101, 214.320183)"><g><path d="M 17.113281 -10.183594 L 17.113281 -76.230469 L 17.640625 -80.324219 L -1.050781 -71.503906 L -1.050781 -70.875 C 5.460938 -72.871094 7.453125 -73.394531 7.453125 -69.195312 L 7.453125 -6.511719 L 6.511719 0 L 23.101562 0 L 23.101562 -0.421875 C 17.851562 -1.574219 17.113281 -4.515625 17.113281 -10.183594 Z M 17.113281 -10.183594 "/></g></g></g><g fill="#f1a77a" fill-opacity="0.4"><g transform="translate(285.794118, 214.320183)"><g><path d="M 52.710938 -10.5 C 49.453125 -5.984375 40.84375 -3.886719 35.28125 -3.886719 C 22.679688 -3.886719 14.488281 -14.804688 14.386719 -29.191406 L 44.414062 -29.191406 C 57.539062 -29.191406 55.125 -51.554688 33.285156 -51.554688 C 18.058594 -51.554688 4.199219 -41.160156 4.199219 -24.253906 C 4.199219 -8.398438 16.171875 0.734375 30.765625 0.734375 C 41.578125 0.734375 50.085938 -4.199219 53.234375 -10.078125 Z M 29.503906 -49.664062 C 43.15625 -49.664062 46.621094 -31.289062 40.214844 -31.183594 L 14.386719 -30.871094 C 14.910156 -42.734375 21 -49.664062 29.503906 -49.664062 Z M 29.503906 -49.664062 "/></g></g></g><g fill="#f1a77a" fill-opacity="1"><g transform="translate(11.408538, 209.679793)"><g><path d="M 36.015625 -41.894531 C 24.988281 -44.414062 14.804688 -47.984375 14.804688 -59.953125 C 14.804688 -67.09375 18.375 -73.183594 28.351562 -73.183594 C 40.109375 -73.183594 50.925781 -64.785156 49.246094 -50.609375 L 58.589844 -65.414062 C 53.023438 -70.769531 45.046875 -74.96875 33.074219 -74.96875 C 16.589844 -74.96875 6.300781 -66.988281 6.300781 -54.808594 C 6.300781 -46.304688 11.234375 -36.433594 31.078125 -31.710938 C 43.574219 -28.769531 51.554688 -25.933594 51.554688 -15.328125 C 51.554688 -8.503906 48.300781 -0.421875 36.226562 -0.421875 C 23.730469 -0.421875 11.761719 -8.820312 13.335938 -22.996094 L 4.199219 -8.398438 C 9.871094 -2.941406 19.320312 1.46875 31.605469 1.46875 C 50.085938 1.46875 59.851562 -8.609375 59.851562 -20.476562 C 59.851562 -27.824219 56.175781 -37.273438 36.015625 -41.894531 Z M 36.015625 -41.894531 "/></g></g></g><g fill="#f1a77a" fill-opacity="1"><g transform="translate(75.458587, 209.679793)"><g><path d="M 11.65625 -62.371094 C 15.015625 -62.371094 17.640625 -64.996094 17.640625 -68.460938 C 17.640625 -71.820312 15.015625 -74.445312 11.65625 -74.445312 C 8.191406 -74.445312 5.566406 -71.820312 5.566406 -68.460938 C 5.566406 -64.996094 8.191406 -62.371094 11.65625 -62.371094 Z M 6.824219 0 L 21.210938 0 C 18.058594 -2.101562 17.113281 -4.09375 17.113281 -9.765625 L 17.113281 -43.679688 L 17.640625 -51.449219 L 1.050781 -49.875 L 1.050781 -49.453125 C 3.253906 -49.246094 5.984375 -48.511719 7.453125 -47.566406 L 7.453125 -7.246094 Z M 6.824219 0 "/></g></g></g><g fill="#f1a77a" fill-opacity="1"><g transform="translate(99.818605, 209.679793)"><g><path d="M 76.753906 0 L 91.140625 0 C 87.988281 -2.101562 87.046875 -4.09375 87.046875 -9.765625 L 87.046875 -32.445312 C 87.046875 -48.300781 79.378906 -51.554688 73.078125 -51.554688 C 64.261719 -51.554688 56.804688 -45.253906 51.136719 -41.054688 L 51.136719 -40.949219 C 48.929688 -49.558594 43.050781 -51.554688 38.113281 -51.554688 C 29.820312 -51.554688 22.679688 -45.886719 17.113281 -41.789062 L 17.113281 -43.679688 L 17.640625 -51.449219 L 1.050781 -49.875 L 1.050781 -49.453125 C 3.253906 -49.246094 5.984375 -48.511719 7.453125 -47.566406 L 7.453125 -7.246094 L 6.824219 0 L 21.210938 0 C 18.058594 -2.101562 17.113281 -4.09375 17.113281 -9.765625 L 17.113281 -39.480469 C 22.363281 -43.363281 26.773438 -47.039062 32.339844 -47.039062 C 37.171875 -47.039062 42.421875 -44.203125 42.421875 -32.234375 L 42.421875 -7.246094 L 41.789062 0 L 56.175781 0 C 53.023438 -2.101562 52.078125 -4.09375 52.078125 -9.765625 L 52.078125 -32.445312 C 52.078125 -34.964844 51.871094 -37.171875 51.554688 -39.058594 C 57.015625 -43.15625 61.53125 -47.039062 67.304688 -47.039062 C 72.136719 -47.039062 77.386719 -44.203125 77.386719 -32.234375 L 77.386719 -7.246094 Z M 76.753906 0 "/></g></g></g><g fill="#f1a77a" fill-opacity="1"><g transform="translate(194.108668, 209.679793)"><g><path d="M 30.03125 -51.554688 C 23.941406 -51.554688 12.179688 -50.503906 1.050781 -47.355469 L 1.050781 -46.933594 C 3.78125 -46.726562 6.511719 -45.988281 7.980469 -45.046875 L 7.980469 10.921875 C 7.980469 16.171875 6.929688 17.953125 3.253906 18.898438 L 3.253906 19.214844 L 23.308594 22.679688 L 23.308594 22.363281 C 18.585938 20.265625 17.640625 18.269531 17.640625 12.601562 L 17.640625 -1.050781 C 20.789062 -0.105469 24.464844 0.734375 29.085938 0.734375 C 47.144531 0.734375 58.171875 -10.710938 58.171875 -26.460938 C 58.171875 -40.84375 49.035156 -51.554688 30.03125 -51.554688 Z M 32.96875 -1.15625 C 27.300781 -1.15625 22.050781 -3.675781 17.640625 -6.824219 L 17.640625 -48.089844 C 19.949219 -49.140625 23.730469 -50.085938 27.195312 -50.085938 C 39.796875 -50.085938 47.878906 -37.695312 47.878906 -21.210938 C 47.878906 -6.40625 41.265625 -1.15625 32.96875 -1.15625 Z M 32.96875 -1.15625 "/></g></g></g><g fill="#f1a77a" fill-opacity="1"><g transform="translate(256.478713, 209.679793)"><g><path d="M 17.113281 -10.183594 L 17.113281 -76.230469 L 17.640625 -80.324219 L -1.050781 -71.503906 L -1.050781 -70.875 C 5.460938 -72.871094 7.453125 -73.394531 7.453125 -69.195312 L 7.453125 -6.511719 L 6.511719 0 L 23.101562 0 L 23.101562 -0.421875 C 17.851562 -1.574219 17.113281 -4.515625 17.113281 -10.183594 Z M 17.113281 -10.183594 "/></g></g></g><g fill="#f1a77a" fill-opacity="1"><g transform="translate(281.153729, 209.679793)"><g><path d="M 52.710938 -10.5 C 49.453125 -5.984375 40.84375 -3.886719 35.28125 -3.886719 C 22.679688 -3.886719 14.488281 -14.804688 14.386719 -29.191406 L 44.414062 -29.191406 C 57.539062 -29.191406 55.125 -51.554688 33.285156 -51.554688 C 18.058594 -51.554688 4.199219 -41.160156 4.199219 -24.253906 C 4.199219 -8.398438 16.171875 0.734375 30.765625 0.734375 C 41.578125 0.734375 50.085938 -4.199219 53.234375 -10.078125 Z M 29.503906 -49.664062 C 43.15625 -49.664062 46.621094 -31.289062 40.214844 -31.183594 L 14.386719 -30.871094 C 14.910156 -42.734375 21 -49.664062 29.503906 -49.664062 Z M 29.503906 -49.664062 "/></g></g></g><g fill="#f1a77a" fill-opacity="0.4"><g transform="translate(342.170003, 214.320183)"><g><path d="M 13.125 0.734375 C 17.113281 0.734375 20.789062 -2.625 20.789062 -7.140625 C 20.789062 -11.339844 17.113281 -14.488281 13.125 -14.488281 C 8.925781 -14.488281 5.25 -11.339844 5.25 -7.140625 C 5.25 -2.625 8.925781 0.734375 13.125 0.734375 Z M 13.125 0.734375 "/></g></g></g><g fill="#f1a77a" fill-opacity="1"><g transform="translate(337.529614, 209.679793)"><g><path d="M 13.125 0.734375 C 17.113281 0.734375 20.789062 -2.625 20.789062 -7.140625 C 20.789062 -11.339844 17.113281 -14.488281 13.125 -14.488281 C 8.925781 -14.488281 5.25 -11.339844 5.25 -7.140625 C 5.25 -2.625 8.925781 0.734375 13.125 0.734375 Z M 13.125 0.734375 "/></g></g></g></svg>