<svg xmlns="http://www.w3.org/2000/svg" xmlns:xlink="http://www.w3.org/1999/xlink" width="500" zoomAndPan="magnify" viewBox="0 0 375 374.999991" height="500" preserveAspectRatio="xMidYMid meet" version="1.0"><defs><g/></defs><g fill="#a8a28a" fill-opacity="0.302"><g transform="translate(15.090899, 197.026993)"><g><path d="M 30.871094 -35.910156 C 21.421875 -38.070312 12.691406 -41.128906 12.691406 -51.390625 C 12.691406 -57.511719 15.75 -62.730469 24.300781 -62.730469 C 34.378906 -62.730469 43.648438 -55.53125 42.210938 -43.378906 L 50.21875 -56.070312 C 45.449219 -60.660156 38.609375 -64.261719 28.351562 -64.261719 C 14.21875 -64.261719 5.398438 -57.421875 5.398438 -46.980469 C 5.398438 -39.691406 9.628906 -31.230469 26.640625 -27.179688 C 37.351562 -24.660156 44.191406 -22.230469 44.191406 -13.140625 C 44.191406 -7.289062 41.398438 -0.359375 31.050781 -0.359375 C 20.339844 -0.359375 10.078125 -7.558594 11.429688 -19.710938 L 3.601562 -7.199219 C 8.460938 -2.519531 16.558594 1.261719 27.089844 1.261719 C 42.929688 1.261719 51.300781 -7.378906 51.300781 -17.550781 C 51.300781 -23.851562 48.148438 -31.949219 30.871094 -35.910156 Z M 30.871094 -35.910156 "/></g></g></g><g fill="#a8a28a" fill-opacity="0.302"><g transform="translate(69.990847, 197.026993)"><g><path d="M 1.351562 0 L 24.210938 0 L 24.210938 -0.449219 C 20.519531 -0.898438 17.371094 -1.890625 17.371094 -5.128906 L 17.371094 -57.871094 C 17.371094 -61.109375 20.519531 -62.101562 24.210938 -62.550781 L 24.210938 -63 L 1.351562 -63 L 1.351562 -62.550781 C 5.039062 -62.101562 8.191406 -61.109375 8.191406 -57.871094 L 8.191406 -5.128906 C 8.191406 -1.890625 5.039062 -0.898438 1.351562 -0.449219 Z M 1.351562 0 "/></g></g></g><g fill="#a8a28a" fill-opacity="0.302"><g transform="translate(95.550824, 197.026993)"><g><path d="M 76.859375 -62.550781 L 76.859375 -63 L 60.839844 -63 L 39.328125 -12.148438 L 13.859375 -63 L 0.898438 -63 C 4.769531 -60.121094 6.480469 -57.421875 8.191406 -54 L 8.191406 -14.128906 C 8.191406 -1.890625 5.039062 -0.898438 1.351562 -0.449219 L 1.351562 0 L 16.828125 0 L 16.828125 -0.449219 C 13.140625 -0.898438 9.988281 -3.691406 9.988281 -15.929688 L 9.988281 -50.398438 L 35.730469 0.988281 L 60.839844 -58.320312 L 60.839844 -5.128906 C 60.839844 -1.890625 57.691406 -0.898438 54 -0.449219 L 54 0 L 76.859375 0 L 76.859375 -0.449219 C 73.171875 -0.898438 70.019531 -1.890625 70.019531 -5.128906 L 70.019531 -57.871094 C 70.019531 -61.109375 73.171875 -62.101562 76.859375 -62.550781 Z M 76.859375 -62.550781 "/></g></g></g><g fill="#a8a28a" fill-opacity="0.302"><g transform="translate(173.760749, 197.026993)"><g><path d="M 33.390625 -63 L 1.351562 -63 L 1.351562 -62.550781 C 5.039062 -62.101562 8.191406 -61.109375 8.191406 -57.871094 L 8.191406 -5.128906 C 8.191406 -1.890625 5.039062 -0.898438 1.351562 -0.449219 L 1.351562 0 L 24.210938 0 L 24.210938 -0.449219 C 20.519531 -0.898438 17.371094 -1.890625 17.371094 -5.128906 L 17.371094 -23.128906 L 29.25 -23.128906 C 46.171875 -23.128906 57.148438 -32.128906 57.148438 -45.179688 C 57.148438 -57.148438 47.878906 -63 33.390625 -63 Z M 31.410156 -24.75 C 27.179688 -24.75 22.320312 -25.378906 17.371094 -26.730469 L 17.371094 -61.558594 L 28.621094 -61.558594 C 45.539062 -61.558594 48.148438 -51.480469 48.148438 -41.761719 C 48.148438 -28.078125 43.109375 -24.75 31.410156 -24.75 Z M 31.410156 -24.75 "/></g></g></g><g fill="#a8a28a" fill-opacity="0.302"><g transform="translate(233.61069, 197.026993)"><g><path d="M 53.191406 -17.550781 C 46.53125 -7.109375 42.210938 -1.441406 29.789062 -1.441406 L 17.371094 -1.441406 L 17.371094 -57.871094 C 17.371094 -61.109375 20.519531 -62.101562 25.109375 -62.550781 L 25.109375 -63 L 1.351562 -63 L 1.351562 -62.550781 C 5.039062 -62.101562 8.191406 -61.109375 8.191406 -57.871094 L 8.191406 -6.929688 C 8.191406 -3.691406 5.039062 -1.800781 1.351562 -0.449219 L 1.351562 0 L 45.539062 0 L 48.601562 1.980469 L 49.140625 0 L 53.550781 -17.371094 Z M 53.191406 -17.550781 "/></g></g></g><g fill="#a8a28a" fill-opacity="0.302"><g transform="translate(288.51065, 197.026993)"><g><path d="M 55.441406 -17.550781 C 48.421875 -7.109375 44.28125 -1.441406 34.289062 -1.441406 L 17.371094 -1.441406 L 17.371094 -30.78125 L 29.96875 -30.78125 C 39.511719 -30.78125 42.210938 -28.351562 44.371094 -21.691406 L 44.371094 -41.308594 C 42.210938 -34.648438 39.511719 -32.21875 29.96875 -32.21875 L 17.371094 -32.21875 L 17.371094 -61.558594 L 32.488281 -61.558594 C 42.480469 -61.558594 46.171875 -57.058594 52.199219 -48.511719 L 52.558594 -48.691406 L 49.589844 -63 L 1.351562 -63 L 1.351562 -62.550781 C 5.039062 -62.101562 8.191406 -61.109375 8.191406 -57.871094 L 8.191406 -6.929688 C 8.191406 -3.691406 5.039062 -1.800781 1.351562 -0.449219 L 1.351562 0 L 47.789062 0 L 50.851562 1.980469 L 51.390625 0 L 55.800781 -17.371094 Z M 55.441406 -17.550781 "/></g></g></g><g fill="#a8a28a" fill-opacity="0.502"><g transform="translate(13.371628, 194.66062)"><g><path d="M 30.871094 -35.910156 C 21.421875 -38.070312 12.691406 -41.128906 12.691406 -51.390625 C 12.691406 -57.511719 15.75 -62.730469 24.300781 -62.730469 C 34.378906 -62.730469 43.648438 -55.53125 42.210938 -43.378906 L 50.21875 -56.070312 C 45.449219 -60.660156 38.609375 -64.261719 28.351562 -64.261719 C 14.21875 -64.261719 5.398438 -57.421875 5.398438 -46.980469 C 5.398438 -39.691406 9.628906 -31.230469 26.640625 -27.179688 C 37.351562 -24.660156 44.191406 -22.230469 44.191406 -13.140625 C 44.191406 -7.289062 41.398438 -0.359375 31.050781 -0.359375 C 20.339844 -0.359375 10.078125 -7.558594 11.429688 -19.710938 L 3.601562 -7.199219 C 8.460938 -2.519531 16.558594 1.261719 27.089844 1.261719 C 42.929688 1.261719 51.300781 -7.378906 51.300781 -17.550781 C 51.300781 -23.851562 48.148438 -31.949219 30.871094 -35.910156 Z M 30.871094 -35.910156 "/></g></g></g><g fill="#a8a28a" fill-opacity="0.502"><g transform="translate(68.271577, 194.66062)"><g><path d="M 1.351562 0 L 24.210938 0 L 24.210938 -0.449219 C 20.519531 -0.898438 17.371094 -1.890625 17.371094 -5.128906 L 17.371094 -57.871094 C 17.371094 -61.109375 20.519531 -62.101562 24.210938 -62.550781 L 24.210938 -63 L 1.351562 -63 L 1.351562 -62.550781 C 5.039062 -62.101562 8.191406 -61.109375 8.191406 -57.871094 L 8.191406 -5.128906 C 8.191406 -1.890625 5.039062 -0.898438 1.351562 -0.449219 Z M 1.351562 0 "/></g></g></g><g fill="#a8a28a" fill-opacity="0.502"><g transform="translate(93.831553, 194.66062)"><g><path d="M 76.859375 -62.550781 L 76.859375 -63 L 60.839844 -63 L 39.328125 -12.148438 L 13.859375 -63 L 0.898438 -63 C 4.769531 -60.121094 6.480469 -57.421875 8.191406 -54 L 8.191406 -14.128906 C 8.191406 -1.890625 5.039062 -0.898438 1.351562 -0.449219 L 1.351562 0 L 16.828125 0 L 16.828125 -0.449219 C 13.140625 -0.898438 9.988281 -3.691406 9.988281 -15.929688 L 9.988281 -50.398438 L 35.730469 0.988281 L 60.839844 -58.320312 L 60.839844 -5.128906 C 60.839844 -1.890625 57.691406 -0.898438 54 -0.449219 L 54 0 L 76.859375 0 L 76.859375 -0.449219 C 73.171875 -0.898438 70.019531 -1.890625 70.019531 -5.128906 L 70.019531 -57.871094 C 70.019531 -61.109375 73.171875 -62.101562 76.859375 -62.550781 Z M 76.859375 -62.550781 "/></g></g></g><g fill="#a8a28a" fill-opacity="0.502"><g transform="translate(172.041478, 194.66062)"><g><path d="M 33.390625 -63 L 1.351562 -63 L 1.351562 -62.550781 C 5.039062 -62.101562 8.191406 -61.109375 8.191406 -57.871094 L 8.191406 -5.128906 C 8.191406 -1.890625 5.039062 -0.898438 1.351562 -0.449219 L 1.351562 0 L 24.210938 0 L 24.210938 -0.449219 C 20.519531 -0.898438 17.371094 -1.890625 17.371094 -5.128906 L 17.371094 -23.128906 L 29.25 -23.128906 C 46.171875 -23.128906 57.148438 -32.128906 57.148438 -45.179688 C 57.148438 -57.148438 47.878906 -63 33.390625 -63 Z M 31.410156 -24.75 C 27.179688 -24.75 22.320312 -25.378906 17.371094 -26.730469 L 17.371094 -61.558594 L 28.621094 -61.558594 C 45.539062 -61.558594 48.148438 -51.480469 48.148438 -41.761719 C 48.148438 -28.078125 43.109375 -24.75 31.410156 -24.75 Z M 31.410156 -24.75 "/></g></g></g><g fill="#a8a28a" fill-opacity="0.502"><g transform="translate(231.89142, 194.66062)"><g><path d="M 53.191406 -17.550781 C 46.53125 -7.109375 42.210938 -1.441406 29.789062 -1.441406 L 17.371094 -1.441406 L 17.371094 -57.871094 C 17.371094 -61.109375 20.519531 -62.101562 25.109375 -62.550781 L 25.109375 -63 L 1.351562 -63 L 1.351562 -62.550781 C 5.039062 -62.101562 8.191406 -61.109375 8.191406 -57.871094 L 8.191406 -6.929688 C 8.191406 -3.691406 5.039062 -1.800781 1.351562 -0.449219 L 1.351562 0 L 45.539062 0 L 48.601562 1.980469 L 49.140625 0 L 53.550781 -17.371094 Z M 53.191406 -17.550781 "/></g></g></g><g fill="#a8a28a" fill-opacity="0.502"><g transform="translate(286.791379, 194.66062)"><g><path d="M 55.441406 -17.550781 C 48.421875 -7.109375 44.28125 -1.441406 34.289062 -1.441406 L 17.371094 -1.441406 L 17.371094 -30.78125 L 29.96875 -30.78125 C 39.511719 -30.78125 42.210938 -28.351562 44.371094 -21.691406 L 44.371094 -41.308594 C 42.210938 -34.648438 39.511719 -32.21875 29.96875 -32.21875 L 17.371094 -32.21875 L 17.371094 -61.558594 L 32.488281 -61.558594 C 42.480469 -61.558594 46.171875 -57.058594 52.199219 -48.511719 L 52.558594 -48.691406 L 49.589844 -63 L 1.351562 -63 L 1.351562 -62.550781 C 5.039062 -62.101562 8.191406 -61.109375 8.191406 -57.871094 L 8.191406 -6.929688 C 8.191406 -3.691406 5.039062 -1.800781 1.351562 -0.449219 L 1.351562 0 L 47.789062 0 L 50.851562 1.980469 L 51.390625 0 L 55.800781 -17.371094 Z M 55.441406 -17.550781 "/></g></g></g><g fill="#5c7c98" fill-opacity="1"><g transform="translate(11.652356, 192.294244)"><g><path d="M 30.871094 -35.910156 C 21.421875 -38.070312 12.691406 -41.128906 12.691406 -51.390625 C 12.691406 -57.511719 15.75 -62.730469 24.300781 -62.730469 C 34.378906 -62.730469 43.648438 -55.53125 42.210938 -43.378906 L 50.21875 -56.070312 C 45.449219 -60.660156 38.609375 -64.261719 28.351562 -64.261719 C 14.21875 -64.261719 5.398438 -57.421875 5.398438 -46.980469 C 5.398438 -39.691406 9.628906 -31.230469 26.640625 -27.179688 C 37.351562 -24.660156 44.191406 -22.230469 44.191406 -13.140625 C 44.191406 -7.289062 41.398438 -0.359375 31.050781 -0.359375 C 20.339844 -0.359375 10.078125 -7.558594 11.429688 -19.710938 L 3.601562 -7.199219 C 8.460938 -2.519531 16.558594 1.261719 27.089844 1.261719 C 42.929688 1.261719 51.300781 -7.378906 51.300781 -17.550781 C 51.300781 -23.851562 48.148438 -31.949219 30.871094 -35.910156 Z M 30.871094 -35.910156 "/></g></g></g><g fill="#5c7c98" fill-opacity="1"><g transform="translate(66.552304, 192.294244)"><g><path d="M 1.351562 0 L 24.210938 0 L 24.210938 -0.449219 C 20.519531 -0.898438 17.371094 -1.890625 17.371094 -5.128906 L 17.371094 -57.871094 C 17.371094 -61.109375 20.519531 -62.101562 24.210938 -62.550781 L 24.210938 -63 L 1.351562 -63 L 1.351562 -62.550781 C 5.039062 -62.101562 8.191406 -61.109375 8.191406 -57.871094 L 8.191406 -5.128906 C 8.191406 -1.890625 5.039062 -0.898438 1.351562 -0.449219 Z M 1.351562 0 "/></g></g></g><g fill="#5c7c98" fill-opacity="1"><g transform="translate(92.112281, 192.294244)"><g><path d="M 76.859375 -62.550781 L 76.859375 -63 L 60.839844 -63 L 39.328125 -12.148438 L 13.859375 -63 L 0.898438 -63 C 4.769531 -60.121094 6.480469 -57.421875 8.191406 -54 L 8.191406 -14.128906 C 8.191406 -1.890625 5.039062 -0.898438 1.351562 -0.449219 L 1.351562 0 L 16.828125 0 L 16.828125 -0.449219 C 13.140625 -0.898438 9.988281 -3.691406 9.988281 -15.929688 L 9.988281 -50.398438 L 35.730469 0.988281 L 60.839844 -58.320312 L 60.839844 -5.128906 C 60.839844 -1.890625 57.691406 -0.898438 54 -0.449219 L 54 0 L 76.859375 0 L 76.859375 -0.449219 C 73.171875 -0.898438 70.019531 -1.890625 70.019531 -5.128906 L 70.019531 -57.871094 C 70.019531 -61.109375 73.171875 -62.101562 76.859375 -62.550781 Z M 76.859375 -62.550781 "/></g></g></g><g fill="#5c7c98" fill-opacity="1"><g transform="translate(170.322206, 192.294244)"><g><path d="M 33.390625 -63 L 1.351562 -63 L 1.351562 -62.550781 C 5.039062 -62.101562 8.191406 -61.109375 8.191406 -57.871094 L 8.191406 -5.128906 C 8.191406 -1.890625 5.039062 -0.898438 1.351562 -0.449219 L 1.351562 0 L 24.210938 0 L 24.210938 -0.449219 C 20.519531 -0.898438 17.371094 -1.890625 17.371094 -5.128906 L 17.371094 -23.128906 L 29.25 -23.128906 C 46.171875 -23.128906 57.148438 -32.128906 57.148438 -45.179688 C 57.148438 -57.148438 47.878906 -63 33.390625 -63 Z M 31.410156 -24.75 C 27.179688 -24.75 22.320312 -25.378906 17.371094 -26.730469 L 17.371094 -61.558594 L 28.621094 -61.558594 C 45.539062 -61.558594 48.148438 -51.480469 48.148438 -41.761719 C 48.148438 -28.078125 43.109375 -24.75 31.410156 -24.75 Z M 31.410156 -24.75 "/></g></g></g><g fill="#5c7c98" fill-opacity="1"><g transform="translate(230.172147, 192.294244)"><g><path d="M 53.191406 -17.550781 C 46.53125 -7.109375 42.210938 -1.441406 29.789062 -1.441406 L 17.371094 -1.441406 L 17.371094 -57.871094 C 17.371094 -61.109375 20.519531 -62.101562 25.109375 -62.550781 L 25.109375 -63 L 1.351562 -63 L 1.351562 -62.550781 C 5.039062 -62.101562 8.191406 -61.109375 8.191406 -57.871094 L 8.191406 -6.929688 C 8.191406 -3.691406 5.039062 -1.800781 1.351562 -0.449219 L 1.351562 0 L 45.539062 0 L 48.601562 1.980469 L 49.140625 0 L 53.550781 -17.371094 Z M 53.191406 -17.550781 "/></g></g></g><g fill="#5c7c98" fill-opacity="1"><g transform="translate(285.072107, 192.294244)"><g><path d="M 55.441406 -17.550781 C 48.421875 -7.109375 44.28125 -1.441406 34.289062 -1.441406 L 17.371094 -1.441406 L 17.371094 -30.78125 L 29.96875 -30.78125 C 39.511719 -30.78125 42.210938 -28.351562 44.371094 -21.691406 L 44.371094 -41.308594 C 42.210938 -34.648438 39.511719 -32.21875 29.96875 -32.21875 L 17.371094 -32.21875 L 17.371094 -61.558594 L 32.488281 -61.558594 C 42.480469 -61.558594 46.171875 -57.058594 52.199219 -48.511719 L 52.558594 -48.691406 L 49.589844 -63 L 1.351562 -63 L 1.351562 -62.550781 C 5.039062 -62.101562 8.191406 -61.109375 8.191406 -57.871094 L 8.191406 -6.929688 C 8.191406 -3.691406 5.039062 -1.800781 1.351562 -0.449219 L 1.351562 0 L 47.789062 0 L 50.851562 1.980469 L 51.390625 0 L 55.800781 -17.371094 Z M 55.441406 -17.550781 "/></g></g></g><g fill="#a8a28a" fill-opacity="0.302"><g transform="translate(345.653377, 197.026993)"><g><path d="M 11.25 0.628906 C 14.671875 0.628906 17.820312 -2.25 17.820312 -6.121094 C 17.820312 -9.71875 14.671875 -12.421875 11.25 -12.421875 C 7.648438 -12.421875 4.5 -9.71875 4.5 -6.121094 C 4.5 -2.25 7.648438 0.628906 11.25 0.628906 Z M 11.25 0.628906 "/></g></g></g><g fill="#a8a28a" fill-opacity="0.502"><g transform="translate(343.934107, 194.66062)"><g><path d="M 11.25 0.628906 C 14.671875 0.628906 17.820312 -2.25 17.820312 -6.121094 C 17.820312 -9.71875 14.671875 -12.421875 11.25 -12.421875 C 7.648438 -12.421875 4.5 -9.71875 4.5 -6.121094 C 4.5 -2.25 7.648438 0.628906 11.25 0.628906 Z M 11.25 0.628906 "/></g></g></g><g fill="#5c7c98" fill-opacity="1"><g transform="translate(342.214834, 192.294244)"><g><path d="M 11.25 0.628906 C 14.671875 0.628906 17.820312 -2.25 17.820312 -6.121094 C 17.820312 -9.71875 14.671875 -12.421875 11.25 -12.421875 C 7.648438 -12.421875 4.5 -9.71875 4.5 -6.121094 C 4.5 -2.25 7.648438 0.628906 11.25 0.628906 Z M 11.25 0.628906 "/></g></g></g></svg>