<svg xmlns="http://www.w3.org/2000/svg" xmlns:xlink="http://www.w3.org/1999/xlink" width="500" zoomAndPan="magnify" viewBox="0 0 375 374.999991" height="500" preserveAspectRatio="xMidYMid meet" version="1.0"><defs><g/></defs><g fill="#99948f" fill-opacity="0.3686"><g transform="translate(3.604769, 201.635473)"><g><path d="M 31.554688 -36.707031 C 21.894531 -38.914062 12.972656 -42.042969 12.972656 -52.527344 C 12.972656 -58.785156 16.097656 -64.121094 24.839844 -64.121094 C 35.140625 -64.121094 44.617188 -56.761719 43.144531 -44.339844 L 51.332031 -57.3125 C 46.457031 -62.003906 39.464844 -65.683594 28.976562 -65.683594 C 14.535156 -65.683594 5.519531 -58.691406 5.519531 -48.019531 C 5.519531 -40.570312 9.84375 -31.921875 27.230469 -27.78125 C 38.179688 -25.207031 45.167969 -22.722656 45.167969 -13.429688 C 45.167969 -7.453125 42.316406 -0.367188 31.738281 -0.367188 C 20.789062 -0.367188 10.304688 -7.726562 11.683594 -20.148438 L 3.679688 -7.359375 C 8.648438 -2.574219 16.925781 1.289062 27.691406 1.289062 C 43.882812 1.289062 52.4375 -7.542969 52.4375 -17.9375 C 52.4375 -24.378906 49.21875 -32.660156 31.554688 -36.707031 Z M 31.554688 -36.707031 "/></g></g></g><g fill="#99948f" fill-opacity="0.3686"><g transform="translate(59.720045, 201.635473)"><g><path d="M 1.378906 0 L 24.746094 0 L 24.746094 -0.460938 C 20.976562 -0.921875 17.753906 -1.933594 17.753906 -5.242188 L 17.753906 -59.152344 C 17.753906 -62.464844 20.976562 -63.476562 24.746094 -63.9375 L 24.746094 -64.398438 L 1.378906 -64.398438 L 1.378906 -63.9375 C 5.152344 -63.476562 8.371094 -62.464844 8.371094 -59.152344 L 8.371094 -5.242188 C 8.371094 -1.933594 5.152344 -0.921875 1.378906 -0.460938 Z M 1.378906 0 "/></g></g></g><g fill="#99948f" fill-opacity="0.3686"><g transform="translate(85.845841, 201.635473)"><g><path d="M 78.5625 -63.9375 L 78.5625 -64.398438 L 62.1875 -64.398438 L 40.203125 -12.417969 L 14.167969 -64.398438 L 0.921875 -64.398438 C 4.875 -61.453125 6.625 -58.691406 8.371094 -55.195312 L 8.371094 -14.441406 C 8.371094 -1.933594 5.152344 -0.921875 1.378906 -0.460938 L 1.378906 0 L 17.203125 0 L 17.203125 -0.460938 C 13.429688 -0.921875 10.210938 -3.773438 10.210938 -16.28125 L 10.210938 -51.515625 L 36.523438 1.011719 L 62.1875 -59.613281 L 62.1875 -5.242188 C 62.1875 -1.933594 58.96875 -0.921875 55.195312 -0.460938 L 55.195312 0 L 78.5625 0 L 78.5625 -0.460938 C 74.792969 -0.921875 71.570312 -1.933594 71.570312 -5.242188 L 71.570312 -59.152344 C 71.570312 -62.464844 74.792969 -63.476562 78.5625 -63.9375 Z M 78.5625 -63.9375 "/></g></g></g><g fill="#99948f" fill-opacity="0.3686"><g transform="translate(165.787109, 201.635473)"><g><path d="M 34.128906 -64.398438 L 1.378906 -64.398438 L 1.378906 -63.9375 C 5.152344 -63.476562 8.371094 -62.464844 8.371094 -59.152344 L 8.371094 -5.242188 C 8.371094 -1.933594 5.152344 -0.921875 1.378906 -0.460938 L 1.378906 0 L 24.746094 0 L 24.746094 -0.460938 C 20.976562 -0.921875 17.753906 -1.933594 17.753906 -5.242188 L 17.753906 -23.644531 L 29.898438 -23.644531 C 47.195312 -23.644531 58.417969 -32.84375 58.417969 -46.179688 C 58.417969 -58.417969 48.941406 -64.398438 34.128906 -64.398438 Z M 32.105469 -25.296875 C 27.78125 -25.296875 22.816406 -25.941406 17.753906 -27.324219 L 17.753906 -62.925781 L 29.253906 -62.925781 C 46.550781 -62.925781 49.21875 -52.621094 49.21875 -42.6875 C 49.21875 -28.703125 44.066406 -25.296875 32.105469 -25.296875 Z M 32.105469 -25.296875 "/></g></g></g><g fill="#99948f" fill-opacity="0.3686"><g transform="translate(226.961955, 201.635473)"><g><path d="M 54.367188 -17.9375 C 47.5625 -7.269531 43.144531 -1.472656 30.449219 -1.472656 L 17.753906 -1.472656 L 17.753906 -59.152344 C 17.753906 -62.464844 20.976562 -63.476562 25.667969 -63.9375 L 25.667969 -64.398438 L 1.378906 -64.398438 L 1.378906 -63.9375 C 5.152344 -63.476562 8.371094 -62.464844 8.371094 -59.152344 L 8.371094 -7.082031 C 8.371094 -3.773438 5.152344 -1.839844 1.378906 -0.460938 L 1.378906 0 L 46.550781 0 L 49.675781 2.023438 L 50.230469 0 L 54.738281 -17.753906 Z M 54.367188 -17.9375 "/></g></g></g><g fill="#99948f" fill-opacity="0.3686"><g transform="translate(283.077232, 201.635473)"><g><path d="M 56.667969 -17.9375 C 49.492188 -7.269531 45.261719 -1.472656 35.050781 -1.472656 L 17.753906 -1.472656 L 17.753906 -31.460938 L 30.632812 -31.460938 C 40.386719 -31.460938 43.144531 -28.976562 45.355469 -22.171875 L 45.355469 -42.226562 C 43.144531 -35.417969 40.386719 -32.933594 30.632812 -32.933594 L 17.753906 -32.933594 L 17.753906 -62.925781 L 33.210938 -62.925781 C 43.421875 -62.925781 47.195312 -58.324219 53.355469 -49.585938 L 53.726562 -49.769531 L 50.6875 -64.398438 L 1.378906 -64.398438 L 1.378906 -63.9375 C 5.152344 -63.476562 8.371094 -62.464844 8.371094 -59.152344 L 8.371094 -7.082031 C 8.371094 -3.773438 5.152344 -1.839844 1.378906 -0.460938 L 1.378906 0 L 48.847656 0 L 51.976562 2.023438 L 52.527344 0 L 57.035156 -17.753906 Z M 56.667969 -17.9375 "/></g></g></g><g fill="#f1a77a" fill-opacity="1"><g transform="translate(7.148442, 199.983035)"><g><path d="M 31.554688 -36.707031 C 21.894531 -38.914062 12.972656 -42.042969 12.972656 -52.527344 C 12.972656 -58.785156 16.097656 -64.121094 24.839844 -64.121094 C 35.140625 -64.121094 44.617188 -56.761719 43.144531 -44.339844 L 51.332031 -57.3125 C 46.457031 -62.003906 39.464844 -65.683594 28.976562 -65.683594 C 14.535156 -65.683594 5.519531 -58.691406 5.519531 -48.019531 C 5.519531 -40.570312 9.84375 -31.921875 27.230469 -27.78125 C 38.179688 -25.207031 45.167969 -22.722656 45.167969 -13.429688 C 45.167969 -7.453125 42.316406 -0.367188 31.738281 -0.367188 C 20.789062 -0.367188 10.304688 -7.726562 11.683594 -20.148438 L 3.679688 -7.359375 C 8.648438 -2.574219 16.925781 1.289062 27.691406 1.289062 C 43.882812 1.289062 52.4375 -7.542969 52.4375 -17.9375 C 52.4375 -24.378906 49.21875 -32.660156 31.554688 -36.707031 Z M 31.554688 -36.707031 "/></g></g></g><g fill="#f1a77a" fill-opacity="1"><g transform="translate(63.263718, 199.983035)"><g><path d="M 1.378906 0 L 24.746094 0 L 24.746094 -0.460938 C 20.976562 -0.921875 17.753906 -1.933594 17.753906 -5.242188 L 17.753906 -59.152344 C 17.753906 -62.464844 20.976562 -63.476562 24.746094 -63.9375 L 24.746094 -64.398438 L 1.378906 -64.398438 L 1.378906 -63.9375 C 5.152344 -63.476562 8.371094 -62.464844 8.371094 -59.152344 L 8.371094 -5.242188 C 8.371094 -1.933594 5.152344 -0.921875 1.378906 -0.460938 Z M 1.378906 0 "/></g></g></g><g fill="#f1a77a" fill-opacity="1"><g transform="translate(89.389514, 199.983035)"><g><path d="M 78.5625 -63.9375 L 78.5625 -64.398438 L 62.1875 -64.398438 L 40.203125 -12.417969 L 14.167969 -64.398438 L 0.921875 -64.398438 C 4.875 -61.453125 6.625 -58.691406 8.371094 -55.195312 L 8.371094 -14.441406 C 8.371094 -1.933594 5.152344 -0.921875 1.378906 -0.460938 L 1.378906 0 L 17.203125 0 L 17.203125 -0.460938 C 13.429688 -0.921875 10.210938 -3.773438 10.210938 -16.28125 L 10.210938 -51.515625 L 36.523438 1.011719 L 62.1875 -59.613281 L 62.1875 -5.242188 C 62.1875 -1.933594 58.96875 -0.921875 55.195312 -0.460938 L 55.195312 0 L 78.5625 0 L 78.5625 -0.460938 C 74.792969 -0.921875 71.570312 -1.933594 71.570312 -5.242188 L 71.570312 -59.152344 C 71.570312 -62.464844 74.792969 -63.476562 78.5625 -63.9375 Z M 78.5625 -63.9375 "/></g></g></g><g fill="#f1a77a" fill-opacity="1"><g transform="translate(169.330781, 199.983035)"><g><path d="M 34.128906 -64.398438 L 1.378906 -64.398438 L 1.378906 -63.9375 C 5.152344 -63.476562 8.371094 -62.464844 8.371094 -59.152344 L 8.371094 -5.242188 C 8.371094 -1.933594 5.152344 -0.921875 1.378906 -0.460938 L 1.378906 0 L 24.746094 0 L 24.746094 -0.460938 C 20.976562 -0.921875 17.753906 -1.933594 17.753906 -5.242188 L 17.753906 -23.644531 L 29.898438 -23.644531 C 47.195312 -23.644531 58.417969 -32.84375 58.417969 -46.179688 C 58.417969 -58.417969 48.941406 -64.398438 34.128906 -64.398438 Z M 32.105469 -25.296875 C 27.78125 -25.296875 22.816406 -25.941406 17.753906 -27.324219 L 17.753906 -62.925781 L 29.253906 -62.925781 C 46.550781 -62.925781 49.21875 -52.621094 49.21875 -42.6875 C 49.21875 -28.703125 44.066406 -25.296875 32.105469 -25.296875 Z M 32.105469 -25.296875 "/></g></g></g><g fill="#f1a77a" fill-opacity="1"><g transform="translate(230.505628, 199.983035)"><g><path d="M 54.367188 -17.9375 C 47.5625 -7.269531 43.144531 -1.472656 30.449219 -1.472656 L 17.753906 -1.472656 L 17.753906 -59.152344 C 17.753906 -62.464844 20.976562 -63.476562 25.667969 -63.9375 L 25.667969 -64.398438 L 1.378906 -64.398438 L 1.378906 -63.9375 C 5.152344 -63.476562 8.371094 -62.464844 8.371094 -59.152344 L 8.371094 -7.082031 C 8.371094 -3.773438 5.152344 -1.839844 1.378906 -0.460938 L 1.378906 0 L 46.550781 0 L 49.675781 2.023438 L 50.230469 0 L 54.738281 -17.753906 Z M 54.367188 -17.9375 "/></g></g></g><g fill="#f1a77a" fill-opacity="1"><g transform="translate(286.620904, 199.983035)"><g><path d="M 56.667969 -17.9375 C 49.492188 -7.269531 45.261719 -1.472656 35.050781 -1.472656 L 17.753906 -1.472656 L 17.753906 -31.460938 L 30.632812 -31.460938 C 40.386719 -31.460938 43.144531 -28.976562 45.355469 -22.171875 L 45.355469 -42.226562 C 43.144531 -35.417969 40.386719 -32.933594 30.632812 -32.933594 L 17.753906 -32.933594 L 17.753906 -62.925781 L 33.210938 -62.925781 C 43.421875 -62.925781 47.195312 -58.324219 53.355469 -49.585938 L 53.726562 -49.769531 L 50.6875 -64.398438 L 1.378906 -64.398438 L 1.378906 -63.9375 C 5.152344 -63.476562 8.371094 -62.464844 8.371094 -59.152344 L 8.371094 -7.082031 C 8.371094 -3.773438 5.152344 -1.839844 1.378906 -0.460938 L 1.378906 0 L 48.847656 0 L 51.976562 2.023438 L 52.527344 0 L 57.035156 -17.753906 Z M 56.667969 -17.9375 "/></g></g></g><g fill="#99948f" fill-opacity="0.3686"><g transform="translate(341.491469, 201.635473)"><g><path d="M 11.5 0.644531 C 14.996094 0.644531 18.214844 -2.300781 18.214844 -6.253906 C 18.214844 -9.933594 14.996094 -12.695312 11.5 -12.695312 C 7.820312 -12.695312 4.601562 -9.933594 4.601562 -6.253906 C 4.601562 -2.300781 7.820312 0.644531 11.5 0.644531 Z M 11.5 0.644531 "/></g></g></g><g fill="#f1a77a" fill-opacity="1"><g transform="translate(345.035142, 199.983035)"><g><path d="M 11.5 0.644531 C 14.996094 0.644531 18.214844 -2.300781 18.214844 -6.253906 C 18.214844 -9.933594 14.996094 -12.695312 11.5 -12.695312 C 7.820312 -12.695312 4.601562 -9.933594 4.601562 -6.253906 C 4.601562 -2.300781 7.820312 0.644531 11.5 0.644531 Z M 11.5 0.644531 "/></g></g></g></svg>